<svg xmlns="http://www.w3.org/2000/svg" width="256" height="256" viewBox="0 0 256 256" role="img" aria-label="Majestic Pool">
  <defs>
    <linearGradient id="g" x1="0" y1="0" x2="1" y2="1">
      <stop offset="0%" stop-color="#0ea5e9"/>
      <stop offset="100%" stop-color="#0369a1"/>
    </linearGradient>
  </defs>
  <rect x="8" y="8" width="240" height="240" rx="48" fill="url(#g)"/>
  <path d="M52 132c12 0 12 8 24 8s12-8 24-8 12 8 24 8 12-8 24-8 12 8 24 8 12-8 24-8" fill="none" stroke="#e0f2fe" stroke-width="12" stroke-linecap="round"/>
  <path d="M52 168c12 0 12 8 24 8s12-8 24-8 12 8 24 8 12-8 24-8 12 8 24 8 12-8 24-8" fill="none" stroke="#bae6fd" stroke-width="12" stroke-linecap="round"/>
  <circle cx="86" cy="78" r="16" fill="#fef08a"/>
</svg>
